<svg width="35" height="35" viewBox="0 0 35 35" fill="none" xmlns="http://www.w3.org/2000/svg">
<g clip-path="url(#clip0_2_953)">
<path d="M27.4121 0H7.58888C5.38764 0 3.604 1.78443 3.604 3.98488V31.0151C3.604 33.2156 5.38764 35 7.58888 35H27.4105C29.6117 35 31.3954 33.2156 31.3954 31.0151V3.98488C31.397 1.78443 29.6109 0 27.4121 0ZM7.33863 13.433C7.33863 12.499 8.09656 11.7426 9.02902 11.7426H9.62038C8.98997 11.0461 8.60264 10.1248 8.60264 9.10944C8.60264 6.93927 10.3632 5.17955 12.5333 5.17955C14.7051 5.17955 16.464 6.93847 16.464 9.11023C16.464 10.124 16.0767 11.0461 15.4447 11.7426H16.0097C16.9438 11.7426 17.7001 12.499 17.7001 13.433V16.2846C17.7001 17.1788 17.0028 17.9025 16.1261 17.963H8.91266C8.03599 17.9025 7.33863 17.1788 7.33863 16.2846V13.433ZM26.0676 29.8197H8.93259C8.05272 29.8197 7.33863 29.1056 7.33863 28.2257C7.33863 27.3458 8.05272 26.6318 8.93259 26.6318H26.0676C26.9474 26.6318 27.6615 27.3458 27.6615 28.2257C27.6615 29.1056 26.9474 29.8197 26.0676 29.8197ZM26.0676 23.8423H8.93259C8.05272 23.8423 7.33863 23.1282 7.33863 22.2484C7.33863 21.3685 8.05272 20.6544 8.93259 20.6544H26.0676C26.9474 20.6544 27.6615 21.3685 27.6615 22.2484C27.6615 23.1282 26.9474 23.8423 26.0676 23.8423ZM26.0676 17.865H20.8872C20.0074 17.865 19.2933 17.1509 19.2933 16.2711C19.2933 15.3912 20.0074 14.6771 20.8872 14.6771H26.0676C26.9474 14.6771 27.6615 15.3912 27.6615 16.2711C27.6615 17.1509 26.9474 17.865 26.0676 17.865Z" fill="#FFE2AB"/>
</g>
<defs>
<clipPath id="clip0_2_953">
<rect width="35" height="35" fill="white"/>
</clipPath>
</defs>
</svg>
